{
  "accessors": [
    {
      "bufferView": 2,
      "componentType": 5126,
      "count": 1104,
      "max": [
        31.46965217590332,
        25.9442081451416,
        -7.346078872680664
      ],
      "min": [
        -31.46965217590332,
        7.783596992492676,
        -26.64034652709961
      ],
      "type": "VEC3"
    },
    {
      "bufferView": 2,
      "byteOffset": 13248,
      "componentType": 5126,
      "count": 1104,
      "max": [
        0.9979081153869629,
        0.9826298952102661,
        0.9949007630348206
      ],
      "min": [
        -0.9979081153869629,
        -0.9826292991638184,
        -0.9632102251052856
      ],
      "type": "VEC3"
    },
    {
      "bufferView": 1,
      "componentType": 5126,
      "count": 1104,
      "max": [
        0.9992267489433289,
        0.9611656069755554
      ],
      "min": [
        0.0005000000237487257,
        0.006055435165762901
      ],
      "type": "VEC2"
    },
    {
      "bufferView": 0,
      "componentType": 5125,
      "count": 3648,
      "type": "SCALAR"
    },
    {
      "bufferView": 2,
      "byteOffset": 26496,
      "componentType": 5126,
      "count": 17397,
      "max": [
        28.589797973632813,
        58.66926956176758,
        23.544960021972656
      ],
      "min": [
        -28.507080078125,
        -14.964960098266602,
        -26.57518768310547
      ],
      "type": "VEC3"
    },
    {
      "bufferView": 2,
      "byteOffset": 235260,
      "componentType": 5126,
      "count": 17397,
      "max": [
        1.0,
        1.0,
        0.9999894499778748
      ],
      "min": [
        -1.0,
        -0.9999959468841553,
        -0.9999997615814209
      ],
      "type": "VEC3"
    },
    {
      "bufferView": 1,
      "byteOffset": 8832,
      "componentType": 5126,
      "count": 17397,
      "max": [
        0.9980690479278564,
        0.9825113415718079
      ],
      "min": [
        0.0005000000237487257,
        0.0005000000237487257
      ],
      "type": "VEC2"
    },
    {
      "bufferView": 0,
      "byteOffset": 14592,
      "componentType": 5125,
      "count": 88320,
      "type": "SCALAR"
    },
    {
      "bufferView": 2,
      "byteOffset": 444024,
      "componentType": 5126,
      "count": 8812,
      "max": [
        29.21318817138672,
        18.776432037353516,
        -15.177098274230957
      ],
      "min": [
        -29.130468368530273,
        3.3224875926971436,
        -30.845638275146484
      ],
      "type": "VEC3"
    },
    {
      "bufferView": 2,
      "byteOffset": 549768,
      "componentType": 5126,
      "count": 8812,
      "max": [
        0.999701201915741,
        1.0,
        0.9976052641868591
      ],
      "min": [
        -0.9997012615203857,
        -1.0,
        -0.9989345669746399
      ],
      "type": "VEC3"
    },
    {
      "bufferView": 1,
      "byteOffset": 148008,
      "componentType": 5126,
      "count": 8812,
      "max": [
        0.9994999766349792,
        0.9994999170303345
      ],
      "min": [
        0.04504785314202309,
        0.006055435165762901
      ],
      "type": "VEC2"
    },
    {
      "bufferView": 0,
      "byteOffset": 367872,
      "componentType": 5125,
      "count": 43200,
      "type": "SCALAR"
    },
    {
      "bufferView": 2,
      "byteOffset": 655512,
      "componentType": 5126,
      "count": 546,
      "max": [
        33.872528076171875,
        26.22135353088379,
        -7.607120990753174
      ],
      "min": [
        -33.872528076171875,
        8.077214241027832,
        -26.928388595581055
      ],
      "type": "VEC3"
    },
    {
      "bufferView": 2,
      "byteOffset": 662064,
      "componentType": 5126,
      "count": 546,
      "max": [
        0.9971327781677246,
        0.503656268119812,
        0.2622377574443817
      ],
      "min": [
        -0.9971325397491455,
        -0.31840750575065613,
        -0.5086091160774231
      ],
      "type": "VEC3"
    },
    {
      "bufferView": 1,
      "byteOffset": 218504,
      "componentType": 5126,
      "count": 546,
      "max": [
        0.9770495295524597,
        0.9910014867782593
      ],
      "min": [
        0.568485677242279,
        0.472711980342865
      ],
      "type": "VEC2"
    },
    {
      "bufferView": 0,
      "byteOffset": 540672,
      "componentType": 5125,
      "count": 2880,
      "type": "SCALAR"
    },
    {
      "bufferView": 2,
      "byteOffset": 668616,
      "componentType": 5126,
      "count": 336,
      "max": [
        31.822885513305664,
        13.208107948303223,
        -21.95977020263672
      ],
      "min": [
        -31.822885513305664,
        7.230830192565918,
        -27.58268928527832
      ],
      "type": "VEC3"
    },
    {
      "bufferView": 2,
      "byteOffset": 672648,
      "componentType": 5126,
      "count": 336,
      "max": [
        0.9464520215988159,
        0.3991830050945282,
        0.2847678065299988
      ],
      "min": [
        -0.9464514255523682,
        -0.9982924461364746,
        -0.9969183802604675
      ],
      "type": "VEC3"
    },
    {
      "bufferView": 1,
      "byteOffset": 222872,
      "componentType": 5126,
      "count": 336,
      "max": [
        0.8818017244338989,
        0.9900827407836914
      ],
      "min": [
        0.03938804566860199,
        0.006055435165762901
      ],
      "type": "VEC2"
    },
    {
      "bufferView": 0,
      "byteOffset": 552192,
      "componentType": 5125,
      "count": 1152,
      "type": "SCALAR"
    },
    {
      "bufferView": 2,
      "byteOffset": 676680,
      "componentType": 5126,
      "count": 512,
      "max": [
        33.800537109375,
        21.174938201904297,
        -7.0970354080200195
      ],
      "min": [
        -33.800537109375,
        7.548367500305176,
        -22.270050048828125
      ],
      "type": "VEC3"
    },
    {
      "bufferView": 2,
      "byteOffset": 682824,
      "componentType": 5126,
      "count": 512,
      "max": [
        0.8444187045097351,
        -0.14631856977939606,
        0.9550266265869141
      ],
      "min": [
        -0.8444195985794067,
        -0.8759101629257202,
        0.2321779876947403
      ],
      "type": "VEC3"
    },
    {
      "bufferView": 1,
      "byteOffset": 225560,
      "componentType": 5126,
      "count": 512,
      "max": [
        0.9761619567871094,
        0.992615818977356
      ],
      "min": [
        0.006055435165762901,
        0.0005000000237487257
      ],
      "type": "VEC2"
    },
    {
      "bufferView": 0,
      "byteOffset": 556800,
      "componentType": 5125,
      "count": 1920,
      "type": "SCALAR"
    },
    {
      "bufferView": 2,
      "byteOffset": 688968,
      "componentType": 5126,
      "count": 322,
      "max": [
        33.81813049316406,
        26.465465545654297,
        -7.0970354080200195
      ],
      "min": [
        -33.81813049316406,
        20.897790908813477,
        -12.079482078552246
      ],
      "type": "VEC3"
    },
    {
      "bufferView": 2,
      "byteOffset": 692832,
      "componentType": 5126,
      "count": 322,
      "max": [
        0.8314375877380371,
        0.9523619413375854,
        0.9817493557929993
      ],
      "min": [
        -0.8314372897148132,
        0.08059888333082199,
        0.0012116505531594157
      ],
      "type": "VEC3"
    },
    {
      "bufferView": 1,
      "byteOffset": 229656,
      "componentType": 5126,
      "count": 322,
      "max": [
        0.9784377813339233,
        0.9906706809997559
      ],
      "min": [
        0.0005894415662623942,
        0.18886299431324005
      ],
      "type": "VEC2"
    },
    {
      "bufferView": 0,
      "byteOffset": 564480,
      "componentType": 5125,
      "count": 1152,
      "type": "SCALAR"
    },
    {
      "bufferView": 2,
      "byteOffset": 696696,
      "componentType": 5126,
      "count": 520,
      "max": [
        32.655303955078125,
        26.465465545654297,
        -11.818438529968262
      ],
      "min": [
        -32.655303955078125,
        12.912544250488281,
        -27.034286499023438
      ],
      "type": "VEC3"
    },
    {
      "bufferView": 2,
      "byteOffset": 702936,
      "componentType": 5126,
      "count": 520,
      "max": [
        0.8293482661247253,
        0.9844179749488831,
        0.12140370905399323
      ],
      "min": [
        -0.829348623752594,
        0.30338919162750244,
        -0.8166221976280212
      ],
      "type": "VEC3"
    },
    {
      "bufferView": 1,
      "byteOffset": 232232,
      "componentType": 5126,
      "count": 520,
      "max": [
        0.9845738410949707,
        0.9218880534172058
      ],
      "min": [
        0.041583530604839325,
        0.007063229568302631
      ],
      "type": "VEC2"
    },
    {
      "bufferView": 0,
      "byteOffset": 569088,
      "componentType": 5125,
      "count": 1920,
      "type": "SCALAR"
    },
    {
      "bufferView": 2,
      "byteOffset": 709176,
      "componentType": 5126,
      "count": 19550,
      "max": [
        27.15747833251953,
        66.1401596069336,
        3.5925140380859375
      ],
      "min": [
        -27.15747833251953,
        31.138296127319336,
        -28.140823364257813
      ],
      "type": "VEC3"
    },
    {
      "bufferView": 2,
      "byteOffset": 943776,
      "componentType": 5126,
      "count": 19550,
      "max": [
        1.0,
        1.0,
        1.0
      ],
      "min": [
        -1.0,
        -1.0,
        -1.0
      ],
      "type": "VEC3"
    },
    {
      "bufferView": 1,
      "byteOffset": 236392,
      "componentType": 5126,
      "count": 19550,
      "max": [
        0.983242392539978,
        0.9957212805747986
      ],
      "min": [
        0.01716631092131138,
        0.006055435165762901
      ],
      "type": "VEC2"
    },
    {
      "bufferView": 0,
      "byteOffset": 576768,
      "componentType": 5125,
      "count": 66048,
      "type": "SCALAR"
    },
    {
      "bufferView": 2,
      "byteOffset": 1178376,
      "componentType": 5126,
      "count": 3868,
      "max": [
        14.689030647277832,
        46.25725173950195,
        -9.024114608764648
      ],
      "min": [
        -14.8347806930542,
        44.92144012451172,
        -19.629091262817383
      ],
      "type": "VEC3"
    },
    {
      "bufferView": 2,
      "byteOffset": 1224792,
      "componentType": 5126,
      "count": 3868,
      "max": [
        1.0,
        1.0,
        1.0
      ],
      "min": [
        -1.0,
        -1.0,
        -1.0
      ],
      "type": "VEC3"
    },
    {
      "bufferView": 1,
      "byteOffset": 392792,
      "componentType": 5126,
      "count": 3868,
      "max": [
        0.8981024622917175,
        0.8167267441749573
      ],
      "min": [
        0.06202080473303795,
        0.17852364480495453
      ],
      "type": "VEC2"
    },
    {
      "bufferView": 0,
      "byteOffset": 840960,
      "componentType": 5125,
      "count": 19008,
      "type": "SCALAR"
    },
    {
      "bufferView": 2,
      "byteOffset": 1271208,
      "componentType": 5126,
      "count": 988,
      "max": [
        147.31687927246094,
        153.8400115966797,
        1.6644177436828613
      ],
      "min": [
        -147.31687927246094,
        0.0,
        0.0
      ],
      "type": "VEC3"
    },
    {
      "bufferView": 2,
      "byteOffset": 1283064,
      "componentType": 5126,
      "count": 988,
      "max": [
        1.0,
        1.0,
        1.0
      ],
      "min": [
        -1.0,
        -1.0,
        -1.287907434743829e-05
      ],
      "type": "VEC3"
    },
    {
      "bufferView": 1,
      "byteOffset": 423736,
      "componentType": 5126,
      "count": 988,
      "max": [
        0.999500036239624,
        0.9917919635772705
      ],
      "min": [
        0.0005000000237487257,
        0.0005000000237487257
      ],
      "type": "VEC2"
    },
    {
      "bufferView": 0,
      "byteOffset": 916992,
      "componentType": 5125,
      "count": 1290,
      "type": "SCALAR"
    }
  ],
  "asset": {
    "extras": {
      "author": "Fred Drabble (https://sketchfab.com/FredDrabble)",
      "license": "CC-BY-4.0 (http://creativecommons.org/licenses/by/4.0/)",
      "source": "https://sketchfab.com/3d-models/vr-headset-0e4a52d027254fd0ba2b68ac8b524438",
      "title": "Vr Headset"
    },
    "generator": "Sketchfab-12.67.0",
    "version": "2.0"
  },
  "bufferViews": [
    {
      "buffer": 0,
      "byteLength": 922152,
      "name": "floatBufferViews",
      "target": 34963
    },
    {
      "buffer": 0,
      "byteLength": 431640,
      "byteOffset": 922152,
      "byteStride": 8,
      "name": "floatBufferViews",
      "target": 34962
    },
    {
      "buffer": 0,
      "byteLength": 1294920,
      "byteOffset": 1353792,
      "byteStride": 12,
      "name": "floatBufferViews",
      "target": 34962
    }
  ],
  "buffers": [
    {
      "byteLength": 2648712,
      "uri": "scene.bin"
    }
  ],
  "images": [
    {
      "uri": "textures/Material_28_baseColor.png"
    },
    {
      "uri": "textures/02_-_Default_baseColor.png"
    },
    {
      "uri": "textures/03_-_Default_baseColor.png"
    },
    {
      "uri": "textures/Material_27_baseColor.png"
    },
    {
      "uri": "textures/Material_32_baseColor.png"
    },
    {
      "uri": "textures/08_-_Default_metallicRoughness.png"
    }
  ],
  "materials": [
    {
      "doubleSided": true,
      "name": "Material_28",
      "pbrMetallicRoughness": {
        "baseColorTexture": {
          "index": 0
        },
        "metallicFactor": 0.0,
        "roughnessFactor": 0.8929713596
      }
    },
    {
      "doubleSided": true,
      "name": "02_-_Default",
      "pbrMetallicRoughness": {
        "baseColorTexture": {
          "index": 1
        },
        "metallicFactor": 0.0,
        "roughnessFactor": 0.8929713596
      }
    },
    {
      "doubleSided": true,
      "name": "03_-_Default",
      "pbrMetallicRoughness": {
        "baseColorTexture": {
          "index": 2
        },
        "metallicFactor": 0.0,
        "roughnessFactor": 0.8929713596
      }
    },
    {
      "doubleSided": true,
      "name": "Material_27",
      "pbrMetallicRoughness": {
        "baseColorTexture": {
          "index": 3
        },
        "metallicFactor": 0.0,
        "roughnessFactor": 0.8929713596
      }
    },
    {
      "doubleSided": true,
      "name": "Material_31",
      "pbrMetallicRoughness": {
        "baseColorFactor": [
          0.588,
          0.588,
          0.588,
          1.0
        ],
        "metallicFactor": 0.0,
        "roughnessFactor": 0.8929713596
      }
    },
    {
      "doubleSided": true,
      "name": "Material_30",
      "pbrMetallicRoughness": {
        "baseColorFactor": [
          0.588,
          0.588,
          0.588,
          1.0
        ],
        "metallicFactor": 0.0,
        "roughnessFactor": 0.8929713596
      }
    },
    {
      "doubleSided": true,
      "name": "Material_32",
      "pbrMetallicRoughness": {
        "baseColorTexture": {
          "index": 4
        },
        "metallicFactor": 0.0,
        "roughnessFactor": 0.8929713596
      }
    },
    {
      "doubleSided": true,
      "name": "Material_29",
      "pbrMetallicRoughness": {
        "baseColorFactor": [
          0.588,
          0.588,
          0.588,
          1.0
        ],
        "metallicFactor": 0.0,
        "roughnessFactor": 0.8929713596
      }
    },
    {
      "doubleSided": true,
      "name": "08_-_Default",
      "pbrMetallicRoughness": {
        "baseColorFactor": [
          0.016789177993879932,
          0.016789177993879932,
          0.016789177993879932,
          1.0
        ],
        "metallicFactor": 0.4712271341463415,
        "metallicRoughnessTexture": {
          "index": 5
        }
      }
    },
    {
      "alphaMode": "BLEND",
      "doubleSided": true,
      "emissiveFactor": [
        0.0,
        1.0,
        1.0
      ],
      "name": "07_-_Default",
      "pbrMetallicRoughness": {
        "baseColorFactor": [
          0.2573057854079805,
          1.0,
          0.8934130848910811,
          0.3431783536585366
        ],
        "metallicFactor": 0.0,
        "roughnessFactor": 0.8929713596
      }
    },
    {
      "doubleSided": true,
      "emissiveFactor": [
        0.0,
        1.0,
        1.0
      ],
      "name": "01_-_Default",
      "pbrMetallicRoughness": {
        "baseColorFactor": [
          0.0,
          0.4594144284531969,
          1.0,
          1.0
        ],
        "metallicFactor": 0.0,
        "roughnessFactor": 0.8929713596
      }
    }
  ],
  "meshes": [
    {
      "name": "strap_Material #28_0",
      "primitives": [
        {
          "attributes": {
            "NORMAL": 1,
            "POSITION": 0,
            "TEXCOORD_0": 2
          },
          "indices": 3,
          "material": 0,
          "mode": 4
        }
      ]
    },
    {
      "name": "strap_02 - Default_0",
      "primitives": [
        {
          "attributes": {
            "NORMAL": 5,
            "POSITION": 4,
            "TEXCOORD_0": 6
          },
          "indices": 7,
          "material": 1,
          "mode": 4
        }
      ]
    },
    {
      "name": "strap_03 - Default_0",
      "primitives": [
        {
          "attributes": {
            "NORMAL": 9,
            "POSITION": 8,
            "TEXCOORD_0": 10
          },
          "indices": 11,
          "material": 2,
          "mode": 4
        }
      ]
    },
    {
      "name": "strap_Material #27_0",
      "primitives": [
        {
          "attributes": {
            "NORMAL": 13,
            "POSITION": 12,
            "TEXCOORD_0": 14
          },
          "indices": 15,
          "material": 3,
          "mode": 4
        }
      ]
    },
    {
      "name": "strap_Material #31_0",
      "primitives": [
        {
          "attributes": {
            "NORMAL": 17,
            "POSITION": 16,
            "TEXCOORD_0": 18
          },
          "indices": 19,
          "material": 4,
          "mode": 4
        }
      ]
    },
    {
      "name": "strap_Material #30_0",
      "primitives": [
        {
          "attributes": {
            "NORMAL": 21,
            "POSITION": 20,
            "TEXCOORD_0": 22
          },
          "indices": 23,
          "material": 5,
          "mode": 4
        }
      ]
    },
    {
      "name": "strap_Material #32_0",
      "primitives": [
        {
          "attributes": {
            "NORMAL": 25,
            "POSITION": 24,
            "TEXCOORD_0": 26
          },
          "indices": 27,
          "material": 6,
          "mode": 4
        }
      ]
    },
    {
      "name": "strap_Material #29_0",
      "primitives": [
        {
          "attributes": {
            "NORMAL": 29,
            "POSITION": 28,
            "TEXCOORD_0": 30
          },
          "indices": 31,
          "material": 7,
          "mode": 4
        }
      ]
    },
    {
      "name": "strap_08 - Default_0",
      "primitives": [
        {
          "attributes": {
            "NORMAL": 33,
            "POSITION": 32,
            "TEXCOORD_0": 34
          },
          "indices": 35,
          "material": 8,
          "mode": 4
        }
      ]
    },
    {
      "name": "strap_07 - Default_0",
      "primitives": [
        {
          "attributes": {
            "NORMAL": 37,
            "POSITION": 36,
            "TEXCOORD_0": 38
          },
          "indices": 39,
          "material": 9,
          "mode": 4
        }
      ]
    },
    {
      "name": "Text001_01 - Default_0",
      "primitives": [
        {
          "attributes": {
            "NORMAL": 41,
            "POSITION": 40,
            "TEXCOORD_0": 42
          },
          "indices": 43,
          "material": 10,
          "mode": 4
        }
      ]
    }
  ],
  "nodes": [
    {
      "children": [
        1
      ],
      "matrix": [
        1.0,
        0.0,
        0.0,
        0.0,
        0.0,
        2.220446049250313e-16,
        -1.0,
        0.0,
        0.0,
        1.0,
        2.220446049250313e-16,
        0.0,
        0.0,
        0.0,
        0.0,
        1.0
      ],
      "name": "Sketchfab_model"
    },
    {
      "children": [
        2
      ],
      "matrix": [
        1.0,
        0.0,
        0.0,
        0.0,
        0.0,
        0.0,
        1.0,
        0.0,
        0.0,
        -1.0,
        0.0,
        0.0,
        0.0,
        0.0,
        0.0,
        1.0
      ],
      "name": "865d73fc7e3f45e6acc4bc9fef3bd049.fbx"
    },
    {
      "children": [
        3,
        14
      ],
      "name": "RootNode"
    },
    {
      "children": [
        4,
        5,
        6,
        7,
        8,
        9,
        10,
        11,
        12,
        13
      ],
      "matrix": [
        1.0,
        0.0,
        0.0,
        0.0,
        0.0,
        2.220446049250313e-16,
        -1.0,
        0.0,
        0.0,
        1.0,
        2.220446049250313e-16,
        0.0,
        0.018476486206054688,
        39.99782180786133,
        36.524436950683594,
        1.0
      ],
      "name": "strap"
    },
    {
      "mesh": 0,
      "name": "strap_Material #28_0"
    },
    {
      "mesh": 1,
      "name": "strap_02 - Default_0"
    },
    {
      "mesh": 2,
      "name": "strap_03 - Default_0"
    },
    {
      "mesh": 3,
      "name": "strap_Material #27_0"
    },
    {
      "mesh": 4,
      "name": "strap_Material #31_0"
    },
    {
      "mesh": 5,
      "name": "strap_Material #30_0"
    },
    {
      "mesh": 6,
      "name": "strap_Material #32_0"
    },
    {
      "mesh": 7,
      "name": "strap_Material #29_0"
    },
    {
      "mesh": 8,
      "name": "strap_08 - Default_0"
    },
    {
      "mesh": 9,
      "name": "strap_07 - Default_0"
    },
    {
      "children": [
        15
      ],
      "matrix": [
        -0.07104100286959913,
        2.910391804441695e-11,
        -3.125621517789091e-08,
        0.0,
        2.910418951840274e-11,
        0.07104100286960602,
        -6.170223711814158e-10,
        0.0,
        1.5730313033427812e-07,
        -3.1052880822508476e-09,
        -0.35752800106998794,
        0.0,
        0.08694186806678772,
        23.420459747314453,
        -29.580825805664063,
        1.0
      ],
      "name": "Text001"
    },
    {
      "mesh": 10,
      "name": "Text001_01 - Default_0"
    }
  ],
  "samplers": [
    {
      "magFilter": 9729,
      "minFilter": 9987,
      "wrapS": 10497,
      "wrapT": 10497
    }
  ],
  "scene": 0,
  "scenes": [
    {
      "name": "Sketchfab_Scene",
      "nodes": [
        0
      ]
    }
  ],
  "textures": [
    {
      "sampler": 0,
      "source": 0
    },
    {
      "sampler": 0,
      "source": 1
    },
    {
      "sampler": 0,
      "source": 2
    },
    {
      "sampler": 0,
      "source": 3
    },
    {
      "sampler": 0,
      "source": 4
    },
    {
      "sampler": 0,
      "source": 5
    }
  ]
}
